<?xml version="1.0" encoding="utf-8"?>
<!-- Generator: Adobe Illustrator 21.0.0, SVG Export Plug-In . SVG Version: 6.00 Build 0)  -->
<svg version="1.1" id="Calque_1" xmlns="http://www.w3.org/2000/svg" xmlns:xlink="http://www.w3.org/1999/xlink" x="0px" y="0px"
	 viewBox="0 0 100 125" style="enable-background:new 0 0 100 125;" xml:space="preserve">
<style type="text/css">
	.st0{fill:#FFFFFF;}
	.st1{fill:none;stroke:#000000;stroke-width:2;stroke-miterlimit:10;}
</style>
<g id="XMLID_1_">
	<g>
		<path class="st0" d="M79.1,43.3L64.8,57.7c-0.1,0.1-0.1,0.2-0.1,0.3l3.4,20.3l-17.9-9.6c0,0-0.1,0-0.2,0s-0.1,0-0.2,0l-17.9,9.6
			L35.3,58c0-0.1,0-0.2-0.1-0.3L20.7,43.3l20-3c0.1,0,0.2-0.1,0.2-0.2l9-18.4l9,18.4c0,0.1,0.1,0.2,0.2,0.2L79.1,43.3z"/>
		<path d="M64.8,57.7l14.3-14.4l-20-3c-0.1,0-0.2-0.1-0.2-0.2l-9-18.4l-9,18.4c0,0.1-0.1,0.2-0.2,0.2l-20,3l14.5,14.4
			c0.1,0.1,0.1,0.2,0.1,0.3l-3.4,20.3l17.9-9.6c0.1,0,0.1,0,0.2,0s0.2,0,0.2,0l17.9,9.6L64.7,58C64.7,57.9,64.7,57.8,64.8,57.7z
			 M68.7,78.4c0.1,0.2,0,0.5-0.2,0.6s-0.4,0.1-0.6,0L50,69.4l-18,9.5C31.9,79,31.8,79,31.7,79c-0.1,0-0.2,0-0.3-0.1
			c-0.1-0.2-0.2-0.4-0.2-0.6L34.6,58L20.1,43.7c-0.1-0.2-0.2-0.4-0.1-0.6c0.1-0.2,0.3-0.4,0.5-0.4l20-3l9-18.4
			c0.1-0.2,0.3-0.3,0.5-0.3s0.4,0.1,0.5,0.3l9,18.4l20,3c0.3,0,0.4,0.2,0.5,0.4c0,0.2,0,0.5-0.2,0.7L65.3,58.1L68.7,78.4z"/>
	</g>
	<g>
		<path class="st1" d="M80,43.1c-0.1-0.2-0.2-0.4-0.5-0.4l-20-3l-9-18.4C50.4,21.1,50.2,21,50,21s-0.4,0.1-0.5,0.3l-9,18.4l-20,3
			c-0.2,0-0.4,0.2-0.5,0.4c-0.1,0.2,0,0.4,0.1,0.6L34.6,58l-3.4,20.3c0,0.2,0.1,0.4,0.2,0.6c0.1,0.1,0.2,0.1,0.3,0.1
			c0.1,0,0.2,0,0.3-0.1l18-9.5L67.9,79c0.2,0.1,0.4,0.1,0.6,0s0.3-0.4,0.2-0.6l-3.4-20.3l14.5-14.3C80,43.6,80,43.3,80,43.1z"/>
		<path class="st1" d="M64.8,57.7c-0.1,0.1-0.1,0.2-0.1,0.3l3.4,20.3l-17.9-9.6c0,0-0.1,0-0.2,0s-0.1,0-0.2,0l-17.9,9.6L35.3,58
			c0-0.1,0-0.2-0.1-0.3L20.7,43.3l20-3c0.1,0,0.2-0.1,0.2-0.2l9-18.4l9,18.4c0,0.1,0.1,0.2,0.2,0.2l20,3L64.8,57.7z"/>
	</g>
</g>
</svg>
