<?xml version="1.0" encoding="utf-8"?>
<!-- Generator: Adobe Illustrator 21.0.0, SVG Export Plug-In . SVG Version: 6.00 Build 0)  -->
<svg version="1.1" id="Calque_1" xmlns="http://www.w3.org/2000/svg" xmlns:xlink="http://www.w3.org/1999/xlink" x="0px" y="0px"
	 viewBox="0 0 100 125" style="enable-background:new 0 0 100 125;" xml:space="preserve">
<path d="M80,43.1c-0.1-0.2-0.2-0.4-0.5-0.4l-20-3l-9-18.4C50.4,21.1,50.2,21,50,21s-0.4,0.1-0.5,0.3l-9,18.4l-20,3
	c-0.2,0-0.4,0.2-0.5,0.4s0,0.4,0.1,0.6L34.6,58l-3.4,20.3c0,0.2,0.1,0.4,0.2,0.6c0.1,0.1,0.2,0.1,0.3,0.1c0.1,0,0.2,0,0.3-0.1
	l18-9.5L67.9,79c0.2,0.1,0.4,0.1,0.6,0s0.3-0.4,0.2-0.6l-3.4-20.3l14.5-14.3C80,43.6,80,43.3,80,43.1z M64.8,57.7
	c-0.1,0.1-0.1,0.2-0.1,0.3l3.4,20.3l-17.9-9.6c0,0-0.1,0-0.2,0s-0.1,0-0.2,0l-17.9,9.6L35.3,58c0-0.1,0-0.2-0.1-0.3L20.7,43.3l20-3
	c0.1,0,0.2-0.1,0.2-0.2l9-18.4l9,18.4c0,0.1,0.1,0.2,0.2,0.2l20,3L64.8,57.7z"/>
</svg>
